<svg width="183" height="159" viewBox="0 0 183 159" fill="none" xmlns="http://www.w3.org/2000/svg">
<path fill-rule="evenodd" clip-rule="evenodd" d="M30.7651 158.19C38.7139 136.08 62.8987 120 91.5 120C120.101 120 144.286 136.08 152.235 158.19C171.108 141.612 183 117.429 183 90.5C183 40.5182 142.034 0 91.5 0C40.9659 0 0 40.5182 0 90.5C0 117.429 11.8919 141.612 30.7651 158.19ZM129 82C129 102.987 111.987 120 91 120C70.0132 120 53 102.987 53 82C53 61.0132 70.0132 44 91 44C111.987 44 129 61.0132 129 82Z" fill="white"/>
</svg>
