<svg width="71" height="69" viewBox="0 0 71 69" fill="none" xmlns="http://www.w3.org/2000/svg">
<path fill-rule="evenodd" clip-rule="evenodd" d="M13.7688 17.7112L58.5856 37.8429L16.8428 58.9201L26.7227 44.5637C29.6625 40.2918 29.3208 34.6284 25.8986 30.9058L13.7688 17.7112ZM63.0502 33.204C66.8492 34.9105 66.8577 40.3205 63.0645 42.2359L15.9918 66.0043C11.3551 68.3455 6.79414 63.07 9.74626 58.7803L21.8152 41.243C23.1515 39.3013 22.9961 36.727 21.4406 35.0349L5.97626 18.2131C2.32641 14.2428 6.90095 7.98165 11.8329 10.1971L63.0502 33.204Z" fill="#8B1ECD"/>
<path fill-rule="evenodd" clip-rule="evenodd" d="M16.2319 16.564L59.8452 38.5335L19.94 60.07L29.7208 44.3211C32.2361 40.2711 31.8561 35.0619 28.7798 31.4197L16.2319 16.564ZM64.2568 34.0375C67.8665 35.8558 67.9389 40.9834 64.3821 42.903L19.4825 67.1349C14.9727 69.5688 10.1566 64.4503 12.8603 60.0969L24.6238 41.1556C25.7671 39.3147 25.5944 36.9469 24.1961 35.2913L8.4876 16.6937C4.97532 12.5354 9.69558 6.55314 14.5568 9.00189L64.2568 34.0375Z" fill="#AC25FF"/>
</svg>
